<mxfile host="app.diagrams.net" modified="2024-05-06T03:26:01.561Z" agent="Mozilla/5.0 (Windows NT 10.0; Win64; x64) AppleWebKit/537.36 (KHTML, like Gecko) Chrome/124.0.0.0 Safari/537.36 Edg/124.0.0.0" etag="omNLJgns1HM2monayTAx" version="24.2.3" type="github">
  <diagram name="第 1 页" id="qIZE1T7M5mhsCrzyjama">
    <mxGraphModel dx="9123" dy="4592" grid="1" gridSize="10" guides="1" tooltips="1" connect="1" arrows="1" fold="1" page="1" pageScale="1" pageWidth="827" pageHeight="1169" math="0" shadow="0">
      <root>
        <mxCell id="0" />
        <mxCell id="1" parent="0" />
        <mxCell id="oWIm9i_71Cfi2djnd1OW-1" value="" style="verticalLabelPosition=bottom;html=1;verticalAlign=top;align=center;shape=mxgraph.floorplan.wall;fillColor=strokeColor;" vertex="1" parent="1">
          <mxGeometry x="460" y="1000" width="1377.95" height="10" as="geometry" />
        </mxCell>
        <mxCell id="oWIm9i_71Cfi2djnd1OW-2" value="" style="verticalLabelPosition=bottom;html=1;verticalAlign=top;align=center;shape=mxgraph.floorplan.wall;fillColor=strokeColor;direction=south;" vertex="1" parent="1">
          <mxGeometry x="1827.95" y="1000" width="10" height="2755.9" as="geometry" />
        </mxCell>
        <mxCell id="oWIm9i_71Cfi2djnd1OW-3" value="" style="verticalLabelPosition=bottom;html=1;verticalAlign=top;align=center;shape=mxgraph.floorplan.wall;fillColor=strokeColor;direction=south;" vertex="1" parent="1">
          <mxGeometry x="-2.4399999999999977" y="1000" width="10" height="314.96" as="geometry" />
        </mxCell>
        <mxCell id="oWIm9i_71Cfi2djnd1OW-4" value="" style="verticalLabelPosition=bottom;html=1;verticalAlign=top;align=center;shape=mxgraph.floorplan.wall;fillColor=strokeColor;" vertex="1" parent="1">
          <mxGeometry x="460" y="3745.9" width="1377.95" height="10" as="geometry" />
        </mxCell>
        <mxCell id="oWIm9i_71Cfi2djnd1OW-5" value="" style="verticalLabelPosition=bottom;html=1;verticalAlign=top;align=center;shape=mxgraph.floorplan.wall;fillColor=strokeColor;" vertex="1" parent="1">
          <mxGeometry x="-2.4399999999999977" y="1000" width="472.44" height="10" as="geometry" />
        </mxCell>
        <mxCell id="oWIm9i_71Cfi2djnd1OW-6" value="" style="verticalLabelPosition=bottom;html=1;verticalAlign=top;align=center;shape=mxgraph.floorplan.wall;fillColor=strokeColor;direction=south;" vertex="1" parent="1">
          <mxGeometry x="470" y="1010" width="10" height="2755.9" as="geometry" />
        </mxCell>
        <mxCell id="oWIm9i_71Cfi2djnd1OW-9" value="" style="verticalLabelPosition=bottom;verticalAlign=top;html=1;shape=mxgraph.basic.patternFillRect;fillStyle=grid;step=5;fillStrokeWidth=0.2;fillStrokeColor=#dddddd;" vertex="1" parent="1">
          <mxGeometry x="480" y="1010" width="1350" height="314.96" as="geometry" />
        </mxCell>
        <mxCell id="oWIm9i_71Cfi2djnd1OW-11" value="" style="verticalLabelPosition=bottom;verticalAlign=top;html=1;shape=mxgraph.basic.patternFillRect;fillStyle=grid;step=5;fillStrokeWidth=0.2;fillStrokeColor=#dddddd;" vertex="1" parent="1">
          <mxGeometry x="477.95" y="3430.94" width="1350" height="314.96" as="geometry" />
        </mxCell>
        <mxCell id="oWIm9i_71Cfi2djnd1OW-12" value="" style="verticalLabelPosition=bottom;verticalAlign=top;html=1;shape=mxgraph.basic.patternFillRect;fillStyle=grid;step=5;fillStrokeWidth=0.2;fillStrokeColor=#dddddd;" vertex="1" parent="1">
          <mxGeometry x="1512.99" y="1010" width="314.96" height="2730" as="geometry" />
        </mxCell>
        <mxCell id="oWIm9i_71Cfi2djnd1OW-13" value="" style="verticalLabelPosition=bottom;html=1;verticalAlign=top;align=center;shape=mxgraph.floorplan.stairs;direction=south;" vertex="1" parent="1">
          <mxGeometry x="20" y="1024.96" width="440" height="290" as="geometry" />
        </mxCell>
      </root>
    </mxGraphModel>
  </diagram>
</mxfile>
